<svg aria-hidden="true" version="1.1" xmlns="http://www.w3.org/2000/svg" xmlns:xlink="http://www.w3.org/1999/xlink">
<defs>
<symbol id="icon-search" viewBox="0 0 32 32">
<path d="M26.708 27.72c0.613 0.613 1.56-0.333 0.947-0.933l-5-5.013c1.687-1.861 2.72-4.343 2.72-7.066 0-0.005 0-0.010 0-0.014v0.001c0-5.853-4.76-10.613-10.613-10.613s-10.613 4.76-10.613 10.613c0 5.853 4.76 10.613 10.613 10.613 2.64 0 5.080-0.973 6.947-2.587l5 5zM5.48 14.693c0-5.12 4.173-9.28 9.28-9.28 5.12 0 9.28 4.16 9.28 9.28s-4.16 9.28-9.28 9.28c-5.107 0-9.28-4.16-9.28-9.28z"></path>
</symbol>
<symbol id="icon-star" viewBox="0 0 282 32">
<path d="M15.125 0.627c0.273-0.836 1.544-0.836 1.816 0l3.633 10.891c0.12 0.375 1.421 0 1.815 0h10.895c0.879 0 0.712 1.299 0 1.816l-9.077 5.444c-0.32 0.23-0.122 1.44 0 1.815l3.633 10.891c0.269 0.836-1.107 0.516-1.818 0l-9.080-5.444c-0.32-0.232 0.32-0.232 0 0l-9.079 5.446c-0.712 0.516-2.089 0.836-1.816 0l3.633-10.891c0.12-0.375 0.316-1.585 0-1.816l-9.082-5.446c-0.712-0.516-0.879-1.815 0-1.815h10.895c0.393 0 1.694 0.375 1.816 0l1.816-10.891zM77.242 0.627c0.273-0.836 1.544-0.836 1.816 0l3.633 10.891c0.12 0.375 1.421 0 1.815 0h10.895c0.879 0 0.712 1.299 0 1.816l-9.077 5.444c-0.32 0.23-0.122 1.44 0 1.815l3.633 10.891c0.269 0.836-1.107 0.516-1.818 0l-9.080-5.444c-0.32-0.232 0.32-0.232 0 0l-9.079 5.446c-0.712 0.516-2.089 0.836-1.816 0l3.633-10.891c0.12-0.375 0.316-1.585 0-1.816l-9.080-5.446c-0.712-0.516-0.879-1.815 0-1.815h10.895c0.393 0 1.694 0.375 1.816 0l1.815-10.891zM139.36 0.627c0.273-0.836 1.544-0.836 1.816 0l3.633 10.891c0.12 0.375 1.421 0 1.815 0h10.895c0.879 0 0.712 1.299 0 1.816l-9.077 5.444c-0.32 0.23-0.122 1.44 0 1.815l3.633 10.891c0.271 0.836-1.107 0.516-1.818 0l-9.080-5.444c-0.32-0.232 0.32-0.232 0 0l-9.079 5.446c-0.712 0.516-2.089 0.836-1.816 0l3.633-10.891c0.12-0.375 0.316-1.585 0-1.816l-9.080-5.446c-0.712-0.516-0.879-1.815 0-1.815h10.895c0.393 0 1.694 0.375 1.816 0l1.815-10.891zM201.478 0.627c0.273-0.836 1.545-0.836 1.816 0l3.631 10.891c0.122 0.375 1.423 0 1.816 0h10.895c0.879 0 0.712 1.299 0 1.816l-9.079 5.446c-0.318 0.23-0.122 1.44 0 1.815l3.631 10.891c0.273 0.836-1.105 0.516-1.816 0l-9.079-5.446c-0.318-0.232 0.318-0.232 0 0l-9.079 5.446c-0.712 0.516-2.088 0.836-1.816 0l3.631-10.891c0.122-0.375 0.318-1.585 0-1.816l-9.079-5.446c-0.712-0.516-0.879-1.815 0-1.815h10.895c0.393 0 1.694 0.375 1.816 0l1.815-10.891zM263.595 0.627c0.273-0.836 1.545-0.836 1.816 0l3.631 10.891c0.122 0.375 1.423 0 1.816 0h10.895c0.879 0 0.712 1.299 0 1.816l-9.079 5.446c-0.318 0.23-0.122 1.44 0 1.815l3.631 10.891c0.273 0.836-1.105 0.516-1.816 0l-9.079-5.446c-0.318-0.232 0.318-0.232 0 0l-9.079 5.446c-0.712 0.516-2.088 0.836-1.816 0l3.631-10.891c0.122-0.375 0.318-1.585 0-1.816l-9.079-5.446c-0.712-0.516-0.879-1.815 0-1.815h10.895c0.393 0 1.694 0.375 1.816 0l1.815-10.891z"></path>
</symbol>
<symbol id="icon-instagram" viewBox="0 0 32 32">
<path d="M31.968 9.408c-0.074-1.7-0.35-2.87-0.744-3.882-0.424-1.111-1.053-2.058-1.849-2.837l-0.001-0.001c-0.78-0.792-1.724-1.419-2.778-1.826l-0.054-0.018c-1.020-0.394-2.18-0.67-3.88-0.744-1.716-0.080-2.262-0.1-6.602-0.1-4.346 0-4.89 0.020-6.596 0.094-1.7 0.074-2.868 0.35-3.88 0.744-1.112 0.424-2.060 1.053-2.839 1.849l-0.001 0.001c-0.792 0.78-1.419 1.724-1.826 2.778l-0.018 0.054c-0.394 1.020-0.668 2.18-0.744 3.88-0.080 1.714-0.1 2.26-0.1 6.602 0 4.346 0.020 4.89 0.094 6.596 0.074 1.7 0.35 2.87 0.744 3.882 0.406 1.076 1.038 2.038 1.85 2.84 0.8 0.81 1.77 1.442 2.832 1.842 1.020 0.394 2.18 0.67 3.882 0.744 1.706 0.076 2.25 0.094 6.596 0.094 4.344 0 4.888-0.020 6.594-0.094 1.7-0.074 2.87-0.35 3.882-0.744 2.156-0.85 3.832-2.524 4.663-4.625l0.019-0.055c0.394-1.020 0.67-2.184 0.744-3.884 0.076-1.706 0.094-2.25 0.094-6.594 0-4.346-0.006-4.89-0.080-6.596zM29.088 22.472c-0.070 1.564-0.332 2.408-0.552 2.97-0.551 1.4-1.638 2.488-3.002 3.027l-0.036 0.013c-0.562 0.218-1.412 0.48-2.968 0.548-1.688 0.076-2.194 0.094-6.464 0.094s-4.782-0.020-6.464-0.094c-1.564-0.068-2.408-0.33-2.97-0.55-0.721-0.269-1.335-0.676-1.837-1.193l-0.001-0.001c-0.517-0.504-0.923-1.118-1.183-1.804l-0.011-0.034c-0.22-0.562-0.48-1.412-0.55-2.968-0.074-1.688-0.094-2.196-0.094-6.464 0-4.27 0.020-4.782 0.094-6.464 0.070-1.564 0.332-2.406 0.55-2.97 0.256-0.694 0.664-1.324 1.2-1.838 0.52-0.53 1.144-0.938 1.84-1.194 0.56-0.22 1.412-0.48 2.968-0.55 1.688-0.074 2.194-0.094 6.464-0.094 4.276 0 4.78 0.020 6.464 0.094 1.562 0.070 2.406 0.332 2.968 0.55 0.694 0.256 1.326 0.664 1.84 1.194 0.53 0.52 0.936 1.144 1.192 1.84 0.22 0.56 0.482 1.412 0.55 2.968 0.076 1.688 0.094 2.194 0.094 6.464s-0.018 4.77-0.092 6.458z"></path>
<path d="M16.060 7.782c-4.462 0.102-8.041 3.743-8.041 8.22s3.578 8.118 8.031 8.22l0.009 0c4.462-0.102 8.041-3.743 8.041-8.22s-3.578-8.118-8.031-8.22l-0.009-0zM16.060 21.336c-2.946 0-5.334-2.388-5.334-5.334s2.388-5.334 5.334-5.334v0c2.946 0 5.334 2.388 5.334 5.334s-2.388 5.334-5.334 5.334v0zM26.524 7.458c0 1.060-0.86 1.92-1.92 1.92s-1.92-0.86-1.92-1.92v0c0-1.060 0.86-1.92 1.92-1.92s1.92 0.86 1.92 1.92v0z"></path>
</symbol>
<symbol id="icon-twitter" viewBox="0 0 32 32">
<path d="M32 6.078c-1.1 0.494-2.376 0.858-3.712 1.029l-0.068 0.007c1.36-0.817 2.381-2.078 2.873-3.58l0.013-0.046c-1.197 0.723-2.591 1.274-4.076 1.574l-0.084 0.014c-1.2-1.279-2.901-2.076-4.788-2.076-3.623 0-6.56 2.937-6.56 6.56v0c0 0.52 0.044 1.020 0.152 1.496-5.468-0.276-10.278-2.878-13.495-6.828l-0.027-0.034c-0.563 0.949-0.895 2.091-0.895 3.311 0 2.264 1.145 4.261 2.888 5.442l0.023 0.015c-1.092-0.030-2.109-0.325-2.997-0.823l0.033 0.017v0.072c0.004 3.164 2.237 5.806 5.213 6.438l0.043 0.008c-0.501 0.137-1.075 0.216-1.669 0.216-0.018 0-0.036-0-0.054-0l0.003 0c-0.031 0.001-0.067 0.001-0.103 0.001-0.403 0-0.796-0.041-1.176-0.119l0.037 0.006c0.873 2.624 3.273 4.496 6.121 4.57l0.009 0c-2.214 1.744-5.044 2.798-8.12 2.798-0.005 0-0.010 0-0.015 0h0.001c-0.538 0-1.054-0.024-1.57-0.090 2.826 1.846 6.287 2.944 10.004 2.944 0.021 0 0.042-0 0.063-0h-0.003c12.072 0 18.672-10 18.672-18.668 0-0.29-0.010-0.57-0.024-0.848 1.299-0.937 2.391-2.066 3.258-3.359l0.030-0.047z"></path>
</symbol>
<symbol id="icon-facebook" viewBox="0 0 32 32">
<path d="M21.33 5.314h2.92v-5.088c-1.238-0.144-2.672-0.226-4.125-0.226-0.046 0-0.092 0-0.138 0l0.007-0c-4.212 0-7.094 2.65-7.094 7.52v4.48h-4.65v5.688h4.648v14.312h5.698v-14.31h4.46l0.708-5.69h-5.17v-3.92c0.002-1.644 0.444-2.768 2.736-2.768z"></path>
</symbol>
<symbol id="icon-youtube" viewBox="0 0 32 32">
<path d="M31.681 9.6c0 0-0.313-2.206-1.275-3.175-1.219-1.275-2.581-1.281-3.206-1.356-4.475-0.325-11.194-0.325-11.194-0.325h-0.012c0 0-6.719 0-11.194 0.325-0.625 0.075-1.987 0.081-3.206 1.356-0.963 0.969-1.269 3.175-1.269 3.175s-0.319 2.588-0.319 5.181v2.425c0 2.587 0.319 5.181 0.319 5.181s0.313 2.206 1.269 3.175c1.219 1.275 2.819 1.231 3.531 1.369 2.563 0.244 10.881 0.319 10.881 0.319s6.725-0.012 11.2-0.331c0.625-0.075 1.988-0.081 3.206-1.356 0.962-0.969 1.275-3.175 1.275-3.175s0.319-2.587 0.319-5.181v-2.425c-0.006-2.588-0.325-5.181-0.325-5.181zM12.694 20.15v-8.994l8.644 4.513-8.644 4.481z"></path>
</symbol>
</defs>
</svg>
